<svg width="24" height="24" viewBox="0 0 24 24" fill="none" xmlns="http://www.w3.org/2000/svg">
<path fill-rule="evenodd" clip-rule="evenodd" d="M6.41486 1.8326C6.5721 1.9561 6.74869 2.12224 6.95187 2.32292C7.38715 2.75133 7.89214 3.43771 8.32547 4.09664C8.76365 4.76295 9.16968 5.46439 9.39725 5.95261L9.3974 5.95292L9.39754 5.95323C9.52654 6.23062 9.6428 6.482 9.72452 6.70231C9.80752 6.92604 9.87649 7.17214 9.87693 7.44069C9.87786 8.00284 9.57274 8.4367 9.27884 8.83687C9.1944 8.95183 9.12266 9.04603 9.06082 9.12723C8.92754 9.30225 8.84016 9.41698 8.77021 9.54967C8.70198 9.67911 8.68207 9.77256 8.71437 9.923C8.76093 10.1399 8.96339 10.6148 9.3565 11.2359C9.73669 11.8367 10.2572 12.5143 10.8792 13.1342C11.5009 13.7541 12.1678 14.2609 12.7565 14.6276C13.3632 15.0055 13.8304 15.1995 14.0536 15.2471C14.2089 15.2802 14.3059 15.2595 14.4356 15.192C14.5724 15.1207 14.6941 15.0278 14.8834 14.8833C14.9578 14.8265 15.0426 14.7618 15.1429 14.6872L15.143 14.6871L15.1506 14.6815C15.5521 14.3832 15.9983 14.0517 16.5637 14.0523C16.8431 14.0526 17.0939 14.1315 17.3147 14.2216C17.5257 14.3077 17.768 14.4298 18.0339 14.5638L18.0561 14.575C18.5221 14.8099 19.2149 15.208 19.8856 15.6419C20.5445 16.0682 21.2397 16.5658 21.6726 17.0019L21.6733 17.0026C21.8745 17.2058 22.0411 17.3824 22.1648 17.5396C22.2847 17.6918 22.4162 17.8886 22.4717 18.1334C22.5342 18.4092 22.4775 18.6386 22.4195 18.7977C22.3933 18.8695 22.3624 18.9383 22.3402 18.9876C22.3368 18.9953 22.3334 19.0028 22.3301 19.0101C22.3095 19.0558 22.2915 19.0957 22.2724 19.1413L22.272 19.1425L22.2715 19.1436C22.0756 19.6082 21.8373 20.0537 21.5596 20.4746L21.5587 20.4758L21.5579 20.4771C21.0153 21.2923 20.5048 21.8249 19.7114 22.1945C19.299 22.3866 18.7099 22.5805 17.7943 22.4663C16.9137 22.3565 15.7679 21.9666 14.2043 21.0909L14.2039 21.0906C11.7016 19.6873 9.96541 18.4774 7.7257 16.244C5.49257 14.0171 4.39493 12.5637 2.85732 9.77037C1.30938 6.95829 1.31159 5.22417 1.75365 4.27955C2.12481 3.48643 2.66278 2.97832 3.47526 2.43853L3.47686 2.43746L3.47846 2.43641C3.89978 2.1596 4.34555 1.92196 4.81021 1.72645L4.81174 1.72581L4.81328 1.72517C4.85926 1.70606 4.89948 1.68803 4.94547 1.66742C4.95268 1.66419 4.96003 1.66089 4.96757 1.65752C5.01698 1.6354 5.08589 1.60466 5.15759 1.57862C5.31651 1.52089 5.54549 1.46451 5.82075 1.52657C6.06549 1.58176 6.26238 1.71285 6.41486 1.8326ZM5.39053 3.10965C5.01137 3.26928 4.64759 3.4632 4.30371 3.68899C3.61734 4.14519 3.32311 4.46475 3.11224 4.91534C2.97211 5.21478 2.71277 6.39722 4.17139 9.04702C5.64033 11.7156 6.65207 13.055 8.78488 15.1818C10.911 17.302 12.5319 18.4331 14.9372 19.7821C16.4092 20.6065 17.3635 20.901 17.9799 20.9779C18.5614 21.0504 18.8664 20.9333 19.078 20.8348C19.5321 20.6232 19.8531 20.3311 20.3085 19.647C20.5349 19.3038 20.7292 18.9404 20.889 18.5616C20.9106 18.51 20.9317 18.4624 20.9496 18.4226C20.8797 18.3396 20.7725 18.2248 20.6077 18.0583C20.2962 17.7445 19.7179 17.32 19.0708 16.9013C18.4355 16.4903 17.7898 16.1206 17.381 15.9145C17.086 15.7658 16.897 15.6713 16.7478 15.6104C16.6027 15.5511 16.5605 15.5523 16.5622 15.5523C16.5757 15.5523 16.5294 15.5258 16.0376 15.8912C15.9873 15.9286 15.933 15.9702 15.8755 16.0143C15.6564 16.1822 15.3911 16.3857 15.1282 16.5225C14.7353 16.727 14.2843 16.83 13.7407 16.7141C13.265 16.6126 12.6234 16.3118 11.9635 15.9008C11.2857 15.4786 10.5282 14.9024 9.82018 14.1966C9.11227 13.4909 8.52327 12.7243 8.089 12.0381C7.66766 11.3723 7.35074 10.7175 7.24778 10.2378C7.13054 9.69171 7.23743 9.2407 7.4433 8.85018C7.57596 8.59851 7.77428 8.33849 7.9375 8.12448C7.98553 8.06152 8.03051 8.00253 8.0699 7.94892C8.38518 7.51962 8.37778 7.45119 8.37698 7.44373C8.37695 7.44348 8.37693 7.4433 8.37693 7.44318C8.37691 7.42873 8.37357 7.37335 8.31817 7.22399C8.2615 7.07124 8.17329 6.87793 8.03749 6.58588C7.85203 6.18813 7.48849 5.55387 7.07218 4.92082C6.65106 4.28044 6.2167 3.70387 5.89931 3.39161L5.89877 3.39109L5.89823 3.39056C5.73075 3.22513 5.61557 3.11792 5.53241 3.04812C5.49201 3.06619 5.44332 3.08769 5.39053 3.10965Z" fill="#252525"/>
</svg>
