<svg width="25" height="24" viewBox="0 0 25 24" fill="none" xmlns="http://www.w3.org/2000/svg">
<path fill-rule="evenodd" clip-rule="evenodd" d="M4.83331 8.67188C4.83331 4.67875 8.2281 1.5 12.3333 1.5C16.4385 1.5 19.8333 4.67875 19.8333 8.67188C19.8333 10.923 18.6162 13.7082 17.2829 16.1155C15.9296 18.559 14.3711 20.7603 13.5353 21.8891C13.3974 22.0776 13.217 22.231 13.0088 22.337C12.7996 22.4435 12.5681 22.499 12.3333 22.499C12.0985 22.499 11.8671 22.4435 11.6578 22.337C11.4496 22.231 11.2692 22.0776 11.1313 21.889C10.2956 20.7598 8.73704 18.5577 7.38374 16.1139C6.0505 13.7064 4.83331 10.9214 4.83331 8.67188ZM12.3333 3C8.9854 3 6.33331 5.57656 6.33331 8.67188C6.33331 10.5004 7.36612 12.9859 8.69597 15.3872C10.0022 17.746 11.5152 19.886 12.3333 20.9917C13.1514 19.8865 14.6644 17.7473 15.9707 15.3888C17.3005 12.9878 18.3333 10.5021 18.3333 8.67188C18.3333 5.57656 15.6812 3 12.3333 3Z" fill="#0184FF"/>
<path fill-rule="evenodd" clip-rule="evenodd" d="M12.3333 7.5C11.5049 7.5 10.8333 8.17157 10.8333 9C10.8333 9.82843 11.5049 10.5 12.3333 10.5C13.1617 10.5 13.8333 9.82843 13.8333 9C13.8333 8.17157 13.1617 7.5 12.3333 7.5ZM9.33331 9C9.33331 7.34315 10.6765 6 12.3333 6C13.9902 6 15.3333 7.34315 15.3333 9C15.3333 10.6569 13.9902 12 12.3333 12C10.6765 12 9.33331 10.6569 9.33331 9Z" fill="#0184FF"/>
</svg>
