<svg width="24" height="24" viewBox="0 0 24 24" fill="none" xmlns="http://www.w3.org/2000/svg">
<path fill-rule="evenodd" clip-rule="evenodd" d="M16.8424 6.54794C15.6034 5.36623 13.9499 4.72247 12.239 4.74893C9.10842 4.74893 6.4496 6.86098 5.50158 9.70498V9.70505C4.99892 11.1954 4.99892 12.8092 5.50158 14.2996H5.50598C6.4584 17.1392 9.11282 19.2512 12.2434 19.2512C13.8595 19.2512 15.2468 18.8379 16.3221 18.1078V18.1048C17.5876 17.2671 18.4518 15.9487 18.7208 14.4583H12.239V9.83734H23.5578C23.6989 10.6398 23.7651 11.46 23.7651 12.2757C23.7651 15.9255 22.4607 19.0113 20.1911 21.1013L20.1935 21.1032C18.2049 22.9374 15.4755 24.0001 12.239 24.0001C7.70183 24.0001 3.55265 21.4427 1.51553 17.3905V17.3905C-0.186456 13.9997 -0.186452 10.0049 1.51555 6.61411H1.51557L1.51553 6.61408C3.55265 2.55749 7.70183 7.62441e-05 12.239 7.62441e-05C15.2197 -0.0351984 18.099 1.08477 20.2684 3.12188L16.8424 6.54794Z" fill="#7893B0"/>
</svg>
