<svg width="22" height="21" viewBox="0 0 22 21" fill="none" xmlns="http://www.w3.org/2000/svg">
<path fill-rule="evenodd" clip-rule="evenodd" d="M5.24944 0.33309C5.40668 0.456583 5.58327 0.622727 5.78644 0.823403C6.22173 1.25181 6.72672 1.9382 7.16005 2.59713C7.59823 3.26344 8.00426 3.96488 8.23183 4.45309L8.23198 4.45341L8.23212 4.45372C8.36112 4.73111 8.47738 4.98249 8.5591 5.2028C8.6421 5.42653 8.71106 5.67263 8.71151 5.94118C8.71244 6.50333 8.40732 6.93719 8.11342 7.33736C8.02898 7.45232 7.95724 7.54652 7.8954 7.62772C7.76212 7.80273 7.67474 7.91747 7.60479 8.05016C7.53656 8.17959 7.51665 8.27304 7.54895 8.42348C7.59551 8.64041 7.79797 9.11525 8.19108 9.73643C8.57127 10.3372 9.0918 11.0148 9.71373 11.6347C10.3355 12.2546 11.0024 12.7614 11.5911 13.1281C12.1978 13.506 12.665 13.7 12.8882 13.7476C13.0435 13.7807 13.1405 13.76 13.2702 13.6924C13.407 13.6212 13.5287 13.5283 13.718 13.3838C13.7924 13.327 13.8772 13.2623 13.9774 13.1877L13.9776 13.1876L13.9852 13.182C14.3867 12.8837 14.8328 12.5522 15.3983 12.5528C15.6777 12.5531 15.9285 12.632 16.1493 12.7221C16.3602 12.8082 16.6026 12.9303 16.8685 13.0642L16.8907 13.0754C17.3567 13.3104 18.0495 13.7085 18.7202 14.1424C19.3791 14.5687 20.0743 15.0662 20.5072 15.5024L20.5078 15.5031C20.7091 15.7063 20.8756 15.8829 20.9994 16.0401C21.1193 16.1922 21.2508 16.3891 21.3063 16.6339C21.3688 16.9097 21.3121 17.1391 21.254 17.2982C21.2279 17.37 21.197 17.4388 21.1748 17.4881C21.1713 17.4958 21.168 17.5033 21.1647 17.5106C21.1441 17.5563 21.1261 17.5962 21.107 17.6418L21.1066 17.6429L21.1061 17.644C20.9102 18.1086 20.6719 18.5542 20.3942 18.975L20.3933 18.9763L20.3925 18.9776C19.8499 19.7928 19.3394 20.3254 18.5459 20.695C18.1336 20.887 17.5445 21.081 16.6289 20.9668C15.7482 20.857 14.6025 20.4671 13.0389 19.5914L13.0385 19.5911C10.5362 18.1878 8.79999 16.9779 6.56028 14.7445C4.32715 12.5176 3.22951 11.0642 1.6919 8.27085C0.143956 5.45878 0.146173 3.72466 0.588229 2.78004C0.95939 1.98691 1.49736 1.47881 2.30984 0.939015L2.31144 0.937952L2.31304 0.936897C2.73435 0.660088 3.18013 0.422444 3.64479 0.226941L3.64632 0.226297L3.64786 0.225659C3.69384 0.206551 3.73406 0.188521 3.78005 0.167906C3.78726 0.164674 3.79461 0.161378 3.80215 0.158004C3.85156 0.135892 3.92047 0.105151 3.99217 0.0791072C4.15109 0.0213811 4.38007 -0.0350065 4.65533 0.0270621C4.90007 0.0822472 5.09696 0.213338 5.24944 0.33309ZM4.2251 1.61014C3.84595 1.76977 3.48217 1.96369 3.13829 2.18948C2.45192 2.64568 2.15769 2.96524 1.94682 3.41582C1.80669 3.71527 1.54735 4.89771 3.00597 7.54751C4.47491 10.2161 5.48665 11.5555 7.61946 13.6823C9.74558 15.8025 11.3665 16.9336 13.7718 18.2826C15.2438 19.107 16.1981 19.4015 16.8145 19.4784C17.396 19.5509 17.701 19.4338 17.9126 19.3353C18.3667 19.1237 18.6876 18.8315 19.1431 18.1475C19.3694 17.8043 19.5638 17.4409 19.7236 17.0621C19.7452 17.0105 19.7663 16.9629 19.7842 16.9231C19.7142 16.8401 19.6071 16.7253 19.4423 16.5588C19.1307 16.245 18.5525 15.8204 17.9054 15.4018C17.2701 14.9908 16.6243 14.6211 16.2156 14.4149C15.9205 14.2663 15.7316 14.1718 15.5824 14.1109C15.4373 14.0516 15.3951 14.0528 15.3967 14.0528C15.4103 14.0528 15.364 14.0263 14.8721 14.3917C14.8219 14.429 14.7676 14.4707 14.7101 14.5147C14.491 14.6827 14.2256 14.8861 13.9627 15.023C13.5699 15.2275 13.1189 15.3305 12.5753 15.2146C12.0996 15.1131 11.4579 14.8123 10.7981 14.4013C10.1203 13.9791 9.36281 13.4029 8.65476 12.6971C7.94685 11.9914 7.35785 11.2248 6.92358 10.5386C6.50224 9.8728 6.18532 9.21796 6.08236 8.73832C5.96512 8.19219 6.07201 7.74119 6.27788 7.35066C6.41054 7.099 6.60886 6.83898 6.77208 6.62497C6.82011 6.562 6.86509 6.50302 6.90447 6.44941C7.21976 6.02011 7.21236 5.95168 7.21156 5.94422C7.21153 5.94397 7.21151 5.94379 7.21151 5.94367C7.21149 5.92921 7.20815 5.87384 7.15275 5.72448C7.09608 5.57173 7.00787 5.37841 6.87207 5.08637C6.6866 4.68861 6.32307 4.05436 5.90676 3.42131C5.48564 2.78093 5.05128 2.20436 4.73388 1.8921L4.73335 1.89157L4.73281 1.89104C4.56533 1.72561 4.45015 1.6184 4.36699 1.54861C4.32659 1.56667 4.2779 1.58818 4.2251 1.61014Z" fill="#0184FF"/>
</svg>
