<svg width="25" height="24" viewBox="0 0 25 24" fill="none" xmlns="http://www.w3.org/2000/svg">
<g clip-path="url(#clip0_947_3267)">
<path fill-rule="evenodd" clip-rule="evenodd" d="M2.91666 12C2.91666 6.61704 7.28369 2.25 12.6667 2.25C18.0496 2.25 22.4167 6.61704 22.4167 12C22.4167 17.383 18.0496 21.75 12.6667 21.75C7.28369 21.75 2.91666 17.383 2.91666 12ZM12.6667 3.75C8.11212 3.75 4.41666 7.44546 4.41666 12C4.41666 16.5545 8.11212 20.25 12.6667 20.25C17.2212 20.25 20.9167 16.5545 20.9167 12C20.9167 7.44546 17.2212 3.75 12.6667 3.75Z" fill="#0184FF"/>
<path fill-rule="evenodd" clip-rule="evenodd" d="M12.6667 5.25C13.0809 5.25 13.4167 5.58579 13.4167 6V12H17.1667C17.5809 12 17.9167 12.3358 17.9167 12.75C17.9167 13.1642 17.5809 13.5 17.1667 13.5H12.6667C12.2524 13.5 11.9167 13.1642 11.9167 12.75V6C11.9167 5.58579 12.2524 5.25 12.6667 5.25Z" fill="#0184FF"/>
</g>
<defs>
<clipPath id="clip0_947_3267">
<rect width="24" height="24" fill="white" transform="translate(0.666656)"/>
</clipPath>
</defs>
</svg>
